<?xml version="1.0" encoding="UTF-8" standalone="no"?>
<!-- Created with Inkscape (http://www.inkscape.org/) -->

<svg
   xmlns:dc="http://purl.org/dc/elements/1.1/"
   xmlns:cc="http://creativecommons.org/ns#"
   xmlns:rdf="http://www.w3.org/1999/02/22-rdf-syntax-ns#"
   xmlns:svg="http://www.w3.org/2000/svg"
   xmlns="http://www.w3.org/2000/svg"
   xmlns:sodipodi="http://sodipodi.sourceforge.net/DTD/sodipodi-0.dtd"
   xmlns:inkscape="http://www.inkscape.org/namespaces/inkscape"
   id="svg4493"
   height="100"
   width="100"
   version="1.1"
   inkscape:version="0.48.4 r9939"
   sodipodi:docname="controller1.svg">
  <defs
     id="defs3073" />
  <sodipodi:namedview
     pagecolor="#ffffff"
     bordercolor="#666666"
     borderopacity="1"
     objecttolerance="10"
     gridtolerance="10"
     guidetolerance="10"
     inkscape:pageopacity="0"
     inkscape:pageshadow="2"
     inkscape:window-width="1018"
     inkscape:window-height="859"
     id="namedview3071"
     showgrid="false"
     inkscape:zoom="6.21"
     inkscape:cx="82.921719"
     inkscape:cy="50"
     inkscape:window-x="158"
     inkscape:window-y="16"
     inkscape:window-maximized="0"
     inkscape:current-layer="svg4493" />
  <metadata
     id="metadata4498">
    <rdf:RDF>
      <cc:Work
         rdf:about="">
        <dc:format>image/svg+xml</dc:format>
        <dc:type
           rdf:resource="http://purl.org/dc/dcmitype/StillImage" />
        <dc:title></dc:title>
      </cc:Work>
    </rdf:RDF>
  </metadata>
  <g
     id="g5701">
    <path
       id="path4501"
       d="M50,25c-6.568,0-13.043,2.668-17.688,7.312-4.644,4.645-7.312,11.12-7.312,17.688s2.668,13.043,7.312,17.688c4.645,4.644,11.12,7.312,17.688,7.312s13.043-2.668,17.688-7.312c4.644-4.645,7.312-11.12,7.312-17.688s-2.668-13.043-7.312-17.688c-4.645-4.644-11.12-7.312-17.688-7.312zm0,3.625c5.5698,0,11.155,2.3428,15.094,6.2812,3.938,3.939,6.281,9.524,6.281,15.094,0,5.5698-2.3428,11.155-6.2812,15.094-3.939,3.938-9.524,6.281-15.094,6.281s-11.155-2.343-15.094-6.281c-3.938-3.939-6.281-9.524-6.281-15.094,0-5.5698,2.3428-11.155,6.2812-15.094,3.939-3.938,9.524-6.281,15.094-6.281z"
       style="baseline-shift:baseline;block-progression:tb;fill:#ffda00;color:#000000;opacity:0.5;direction:ltr;text-indent:0;text-align:start;enable-background:accumulate;text-transform:none;" />
    <path
       id="path5622"
       style="opacity:0.5;fill:#ffda00;"
       d="m64.536,50.318-11.111,6.9745-11.111,6.9745,0-13.949,0-13.949,11.111,6.9745z" />
  </g>
  <g
     id="g5705">
    <path
       id="path4501-1"
       d="M92.5,0c-3.972,0-7.5,3.5277-7.5,7.5,0,3.972,3.528,7.5,7.5,7.5s7.5-3.528,7.5-7.5c0-3.9723-3.528-7.5-7.5-7.5zm0,1.0938c3.3104,0,6.4062,3.0958,6.4062,6.4062s-3.0958,6.4062-6.4062,6.4062-6.4062-3.0958-6.4062-6.4062,3.0958-6.4062,6.4062-6.4062z"
       style="baseline-shift:baseline;block-progression:tb;fill:#ffda00;color:#000000;opacity:0.5;direction:ltr;text-indent:0;text-align:start;enable-background:accumulate;text-transform:none;" />
    <path
       id="rect5624"
       style="opacity:0.5;fill-rule:evenodd;fill:#ffda00;"
       d="M89.281,3.125l-1.125,1.125,3.344,3.3125-3.344,3.3435,1.125,1.125,3.344-3.3435,3.313,3.3435,1.124-1.125-3.312-3.3435,3.312-3.3125-1.124-1.125-3.313,3.3125-3.344-3.3125z" />
  </g>
  <rect
     style="opacity:0;fill:#ffda00;fill-opacity:1;fill-rule:evenodd;stroke:none"
     id="rect3075"
     width="70"
     height="70"
     x="15"
     y="15" />
  <rect
     style="opacity:0;fill:#ffda00;fill-opacity:1;fill-rule:evenodd;stroke:none"
     id="rect3156"
     width="15"
     height="15"
     x="85"
     y="0" />
</svg>
