<!-- Created with Inkscape (http://www.inkscape.org/) -->
<svg id="svg2997" xmlns:rdf="http://www.w3.org/1999/02/22-rdf-syntax-ns#" xmlns="http://www.w3.org/2000/svg" height="360" width="640" version="1.1" xmlns:cc="http://creativecommons.org/ns#" xmlns:dc="http://purl.org/dc/elements/1.1/">
 <metadata id="metadata3002">
  <rdf:RDF>
   <cc:Work rdf:about="">
    <dc:format>image/svg+xml</dc:format>
    <dc:type rdf:resource="http://purl.org/dc/dcmitype/StillImage"/>
    <dc:title/>
   </cc:Work>
  </rdf:RDF>
 </metadata>
 <g id="layer1" transform="matrix(4,0,0,4,220,-3929.4488)">
  <g id="g5701" transform="translate(-25,977.3622)">
   <path id="path4501" style="opacity:0.5;direction:ltr;enable-background:accumulate;baseline-shift:baseline;block-progression:tb;text-indent:0;color:#000000;fill:#ffda00;text-transform:none;text-align:start;" d="M50,25c-6.568,0-13.043,2.668-17.688,7.312-4.644,4.645-7.312,11.12-7.312,17.688s2.668,13.043,7.312,17.688c4.645,4.644,11.12,7.312,17.688,7.312s13.043-2.668,17.688-7.312c4.644-4.645,7.312-11.12,7.312-17.688s-2.668-13.043-7.312-17.688c-4.645-4.644-11.12-7.312-17.688-7.312zm0,3.625c5.5698,0,11.155,2.3428,15.094,6.2812,3.938,3.939,6.281,9.524,6.281,15.094,0,5.5698-2.3428,11.155-6.2812,15.094-3.939,3.938-9.524,6.281-15.094,6.281s-11.155-2.343-15.094-6.281c-3.938-3.939-6.281-9.524-6.281-15.094,0-5.5698,2.3428-11.155,6.2812-15.094,3.939-3.938,9.524-6.281,15.094-6.281z"/>
   <path id="path5622" style="opacity:0.5;fill:#ffda00;" d="m64.536,50.318-11.111,6.9745-11.111,6.9745,0-13.949,0-13.949,11.111,6.9745z"/>
  </g>
 </g>
 <rect id="rect2996" style="opacity:0;" height="360" width="640" y="0" x="0"/>
</svg>
