<?xml version="1.0" encoding="UTF-8" standalone="no"?>
<!-- Created with Inkscape (http://www.inkscape.org/) -->

<svg
   xmlns:dc="http://purl.org/dc/elements/1.1/"
   xmlns:cc="http://creativecommons.org/ns#"
   xmlns:rdf="http://www.w3.org/1999/02/22-rdf-syntax-ns#"
   xmlns:svg="http://www.w3.org/2000/svg"
   xmlns="http://www.w3.org/2000/svg"
   xmlns:sodipodi="http://sodipodi.sourceforge.net/DTD/sodipodi-0.dtd"
   xmlns:inkscape="http://www.inkscape.org/namespaces/inkscape"
   id="svg4493"
   height="15"
   width="15"
   version="1.1"
   inkscape:version="0.48.4 r9939"
   sodipodi:docname="videoStopButtonsvg.svg">
  <defs
     id="defs4814" />
  <sodipodi:namedview
     pagecolor="#ffffff"
     bordercolor="#666666"
     borderopacity="1"
     objecttolerance="10"
     gridtolerance="10"
     guidetolerance="10"
     inkscape:pageopacity="0"
     inkscape:pageshadow="2"
     inkscape:window-width="1280"
     inkscape:window-height="1004"
     id="namedview4812"
     showgrid="false"
     inkscape:zoom="15.733333"
     inkscape:cx="-3.7817797"
     inkscape:cy="4.9576271"
     inkscape:window-x="-4"
     inkscape:window-y="-1"
     inkscape:window-maximized="1"
     inkscape:current-layer="svg4493" />
  <metadata
     id="metadata4498">
    <rdf:RDF>
      <cc:Work
         rdf:about="">
        <dc:format>image/svg+xml</dc:format>
        <dc:type
           rdf:resource="http://purl.org/dc/dcmitype/StillImage" />
        <dc:title></dc:title>
      </cc:Work>
    </rdf:RDF>
  </metadata>
  <path
     inkscape:connector-curvature="0"
     d="M 7.5,0 C 3.528,0 0,3.5277 0,7.5 0,11.472 3.528,15 7.5,15 11.472,15 15,11.472 15,7.5 15,3.5277 11.472,0 7.5,0 z m 0,1.0938 c 3.3104,0 6.4062,3.0958 6.4062,6.4062 0,3.3104 -3.0958,6.4062 -6.4062,6.4062 -3.3104,0 -6.4062,-3.0958 -6.4062,-6.4062 0,-3.3104 3.0958,-6.4062 6.4062,-6.4062 z"
     style="text-indent:0;text-align:start;text-transform:none;direction:ltr;block-progression:tb;baseline-shift:baseline;opacity:0.5;color:#000000;fill:#ffda00;enable-background:accumulate"
     id="path4501-1" />
  <rect
     id="rect3075"
     style="opacity:0;"
     height="70"
     width="70"
     y="-70"
     x="15" />
  <rect
     id="rect3156"
     style="opacity:0;"
     height="15"
     width="15"
     y="-85"
     x="85" />
  <rect
     id="rect2996"
     style="opacity:0;"
     height="15"
     width="15"
     y="0"
     x="0" />
  <path
     style="opacity:0.5;fill:none;stroke:#ffda00;stroke-width:1.84643054;stroke-linecap:round;stroke-miterlimit:4;stroke-opacity:1;stroke-dasharray:none"
     d="M 5.6003509,2.9047325 10.534341,7.5031648 5.6216492,12.081747"
     id="path5354"
     inkscape:connector-curvature="0" />
</svg>
