<!-- Created with Inkscape (http://www.inkscape.org/) -->
<svg id="svgcanvas" xmlns:rdf="http://www.w3.org/1999/02/22-rdf-syntax-ns#" xmlns="http://www.w3.org/2000/svg" height="576" width="1024" version="1.1" xmlns:cc="http://creativecommons.org/ns#" xmlns:xlink="http://www.w3.org/1999/xlink" xmlns:dc="http://purl.org/dc/elements/1.1/">
 <defs id="defs4">
  <filter id="filter4532-3-2-4-9" color-interpolation-filters="sRGB">
   <feFlood id="feFlood4534-3-3-3-9" result="flood" flood-opacity="0.903" flood-color="rgb(0,0,0)"/>
   <feComposite id="feComposite4536-4-1-5-8" operator="in" result="composite1" in2="SourceGraphic" in="flood"/>
   <feGaussianBlur id="feGaussianBlur4538-6-6-7-9" stdDeviation="3.9" result="blur"/>
   <feOffset id="feOffset4540-6-2-3-9" result="offset" dx="4" dy="4.1"/>
   <feComposite id="feComposite4542-7-4-4-7" operator="over" result="composite2" in2="offset" in="SourceGraphic"/>
  </filter>
 </defs>
 <metadata id="metadata7">
  <rdf:RDF>
   <cc:Work rdf:about="">
    <dc:format>image/svg+xml</dc:format>
    <dc:type rdf:resource="http://purl.org/dc/dcmitype/StillImage"/>
    <dc:title/>
   </cc:Work>
  </rdf:RDF>
 </metadata>
 <text id="text3996" style="font-size:18px;font-family:Sans;letter-spacing:0px;line-height:125%;word-spacing:0px;font-weight:normal;font-style:normal;fill:#000000;" y="331.40332" x="654.85205" xml:space="preserve"><tspan id="tspan3998" y="331.40332" x="654.85205"/></text>
 <text id="text3025-6-7-6-9-3-9" style="font-size:18px;font-family:Sans;letter-spacing:1px;line-height:125%;word-spacing:0px;stroke:#ffe340;font-weight:normal;font-style:normal;fill:#ffe340;" y="460.41211" x="491.09692" xml:space="preserve"><tspan id="tspan3027-5-9-9-6-6-8" y="460.41211" x="491.09692" style="letter-spacing:1px;stroke:#ffe340;fill:#ffe340;"/></text>
 <g id="layer1" style="display:none;">
  <image id="image3147" xlink:href="file:///home/user/code/canvas-lab/project/snapshot.png" height="1024" width="1280" y="-224" x="-128"/>
 </g>
 <g id="layer3" style="display:none;">
  <g id="layer4" transform="translate(0,4.4656992e-6)">
   <path id="path3229" style="stroke-linejoin:miter;stroke:#ec0c21;stroke-width:1px;stroke-linecap:butt;fill:none;" d="m355,54c76.602,229.52,275,234,275,234"/>
   <path id="path3229-5" style="stroke-linejoin:miter;stroke:#ec0c21;stroke-width:1px;stroke-linecap:butt;fill:none;" d="m420,218c89.31,103.62,210,70,210,70"/>
   <path id="path4068" style="stroke-linejoin:miter;stroke:#ed0707;stroke-width:1px;stroke-linecap:butt;fill:none;" d="M420,218c-64.12-71.4-65-164-65-164"/>
   <path id="path3913" style="stroke-linejoin:miter;stroke:#f50a0a;stroke-width:1px;stroke-linecap:butt;fill:none;" d="M630,288c-142.44,25.53-210-70-210-70"/>
   <path id="path3915" style="stroke-linejoin:miter;stroke:#f20b0b;stroke-width:1px;stroke-linecap:butt;fill:none;" d="M923,113c-223.91,95.04-503,105-503,105"/>
   <path id="path3935" style="stroke-linejoin:miter;stroke:#f40505;stroke-width:1px;stroke-linecap:butt;fill:none;" d="M923,113c-240.02-79.737-568-59-568-59"/>
  </g>
 </g>
 <g id="layer6">
  <path id="path4826" style="stroke-linejoin:miter;stroke:#a68e00;stroke-width:1.72421098px;stroke-linecap:butt;fill:#a68e00;" d="m111.46,18.593,121.98-0.04593"/>
  <rect id="rect4819" style="stroke-linejoin:round;stroke-dashoffset:0;stroke:#000000;stroke-linecap:round;stroke-miterlimit:4;stroke-dasharray:none;stroke-width:3.71603918;fill:#000000;" height="540.68" width="0.84992" y="17.467" x="235.86"/>
  <text id="text4822" style="font-size:18px;font-family:Sans;letter-spacing:0px;line-height:125%;word-spacing:0px;font-weight:normal;font-style:normal;fill:#000000;" y="22.499437" x="12.223632" xml:space="preserve"><tspan id="tspan4824" y="22.499437" x="12.223632" style="font-size:16px;fill:#a68e00;">Introduction</tspan></text>
  <text id="text4822-6" style="font-size:18px;font-family:Sans;letter-spacing:0px;line-height:125%;word-spacing:0px;font-weight:normal;font-style:normal;fill:#000000;" y="561.77344" x="12.295563" xml:space="preserve"><tspan id="tspan4824-6" y="561.77344" x="12.295563" style="font-size:16px;fill:#a68e00;">Conclusion</tspan></text>
  <path id="path4826-0" style="stroke-linejoin:miter;stroke:#a68e00;stroke-width:1.49821746px;stroke-linecap:butt;fill:#a68e00;" d="m102.33,557.76,131.08,0"/>
  <text id="text4822-4" style="font-size:18px;font-family:Sans;letter-spacing:0px;line-height:125%;word-spacing:0px;font-weight:normal;font-style:normal;fill:#000000;" y="111.52599" x="91.838287" xml:space="preserve"><tspan id="tspan4824-1" y="111.52599" x="91.838287" style="font-size:16px;fill:#a68e00;">Scene1</tspan></text>
  <path id="path3040" style="stroke:#a68e00;stroke-dasharray:none;stroke-miterlimit:4;stroke-width:2.43895698;fill:none;" d="m88.498,112.55a12.421,11.645,0,1,1,-24.842,0,12.421,11.645,0,1,1,24.842,0z" transform="matrix(0.76520378,0,0,0.81621744,212.11837,15.975258)"/>
  <path id="path3810" style="fill:#a68e00;" transform="matrix(0.76035719,0,0,0.76035719,229.83976,-14.469683)" d="m62.91,160.68-7.5913,4.3828-7.5913,4.3828,0-8.7657,0-8.7657,7.5913,4.3828z"/>
  <g id="slider" transform="translate(0.17758001,-387.79528)">
   <path id="path4147" style="stroke-linejoin:round;stroke-dashoffset:0;filter:url(#filter4532-3-2-4-9);stroke:#282828;stroke-linecap:square;stroke-miterlimit:4;stroke-dasharray:none;stroke-width:1;fill:#282828;" transform="matrix(0.61491825,0,0,0.74729124,142.74778,363.73963)" d="m177,238.5a25.5,20.5,0,1,1,-51,0,25.5,20.5,0,1,1,51,0z"/>
   <rect id="rect4616" style="stroke-linejoin:round;stroke-dashoffset:0;stroke:#a68e00;stroke-linecap:square;stroke-miterlimit:4;stroke-dasharray:none;stroke-width:0.34659806;fill:#a68e00;" height="2.6601" width="22.129" y="540.33" x="224.87"/>
   <rect id="rect4616-4" style="stroke-linejoin:round;stroke-dashoffset:0;stroke:#a68e00;stroke-linecap:square;stroke-miterlimit:4;stroke-dasharray:none;stroke-width:0.34659806;fill:#a68e00;" transform="matrix(0,-1,1,0,0,0)" height="2.6506" width="22.208" y="234.61" x="-552.76"/>
  </g>
  <rect id="rect3884" style="fill-rule:evenodd;fill:#a68e00;" height="1.5" width="82.751" y="106.17" x="150.65"/>
  <rect id="rect3884-6" style="fill-rule:evenodd;fill:#a68e00;" height="1.5" width="21.545" y="106.19" x="239.26"/>
 </g>
</svg>
