<?xml version="1.0" encoding="UTF-8" standalone="no"?>
<!-- Created with Inkscape (http://www.inkscape.org/) -->

<svg
   xmlns:dc="http://purl.org/dc/elements/1.1/"
   xmlns:cc="http://creativecommons.org/ns#"
   xmlns:rdf="http://www.w3.org/1999/02/22-rdf-syntax-ns#"
   xmlns:svg="http://www.w3.org/2000/svg"
   xmlns="http://www.w3.org/2000/svg"
   xmlns:sodipodi="http://sodipodi.sourceforge.net/DTD/sodipodi-0.dtd"
   xmlns:inkscape="http://www.inkscape.org/namespaces/inkscape"
   id="svg2985"
   height="200"
   width="300"
   version="1.1"
   inkscape:version="0.48.4 r9939"
   sodipodi:docname="narratorTOC.svg">
  <defs
     id="defs3145" />
  <sodipodi:namedview
     pagecolor="#ffffff"
     bordercolor="#666666"
     borderopacity="1"
     objecttolerance="10"
     gridtolerance="10"
     guidetolerance="10"
     inkscape:pageopacity="0"
     inkscape:pageshadow="2"
     inkscape:window-width="1178"
     inkscape:window-height="918"
     id="namedview3143"
     showgrid="false"
     inkscape:zoom="3.337544"
     inkscape:cx="282.03077"
     inkscape:cy="138.3399"
     inkscape:window-x="26"
     inkscape:window-y="25"
     inkscape:window-maximized="0"
     inkscape:current-layer="layer2"
     inkscape:snap-bbox="false"
     inkscape:bbox-paths="false"
     inkscape:bbox-nodes="false"
     inkscape:snap-bbox-edge-midpoints="false"
     inkscape:snap-bbox-midpoints="false"
     inkscape:object-paths="false"
     inkscape:snap-intersection-paths="false"
     inkscape:object-nodes="false"
     inkscape:snap-smooth-nodes="false"
     inkscape:snap-midpoints="false"
     inkscape:snap-object-midpoints="true"
     inkscape:snap-nodes="false"
     inkscape:snap-global="false" />
  <metadata
     id="metadata2990">
    <rdf:RDF>
      <cc:Work
         rdf:about="">
        <dc:format>image/svg+xml</dc:format>
        <dc:type
           rdf:resource="http://purl.org/dc/dcmitype/StillImage" />
        <dc:title />
      </cc:Work>
    </rdf:RDF>
  </metadata>
  <g
     inkscape:groupmode="layer"
     id="layer3"
     inkscape:label="scene3"
     style="display:none">
    <path
       style="fill:none;stroke:#a68e00;stroke-width:2.72000003;stroke-linecap:butt;stroke-linejoin:miter;stroke-miterlimit:4;stroke-dasharray:none;display:inline"
       d="m 300.33547,10.819868 -14.46538,0"
       id="path3172-7-1"
       inkscape:connector-curvature="0" />
    <path
       style="fill:none;stroke:#a68e00;stroke-width:2.72000003;stroke-linecap:butt;stroke-linejoin:miter;stroke-miterlimit:4;stroke-dasharray:none;display:inline"
       d="m 286.25746,9.43522 c 0,101.79359 0,101.79359 0,101.79359 -45.36176,40.83175 -45.36176,40.83175 -45.36176,40.83175"
       id="path3812-7-4-4"
       inkscape:connector-curvature="0" />
    <g
       style="font-size:12px;font-style:normal;font-weight:normal;line-height:125%;letter-spacing:0px;word-spacing:0px;fill:#a68e00;display:inline;font-family:Sans"
       id="text3847-4-6-3"
       transform="translate(-1.7584,0)">
      <g
         id="g4271">
        <path
           inkscape:connector-curvature="0"
           id="path4233"
           style="fill:#a68e00"
           d="m 97.260994,24.16658 1.183594,0 0,3.697266 3.925782,-3.697266 1.52344,0 -4.3418,4.078125 4.65234,4.669922 -1.55859,0 -4.201172,-4.212891 0,4.212891 -1.183594,0 0,-8.748047" />
        <path
           inkscape:connector-curvature="0"
           id="path4235"
           style="fill:#a68e00"
           d="m 105.13599,24.16658 1.59375,0 3.87891,7.31836 0,-7.31836 1.14844,0 0,8.748047 -1.59375,0 -3.87891,-7.318359 0,7.318359 -1.14844,0 0,-8.748047" />
        <path
           inkscape:connector-curvature="0"
           id="path4237"
           style="fill:#a68e00"
           d="m 117.66334,24.969315 c -0.85938,8e-6 -1.54297,0.32032 -2.05078,0.960937 -0.50391,0.640631 -0.75586,1.513677 -0.75586,2.619141 0,1.101565 0.25195,1.972658 0.75586,2.613281 0.50781,0.640626 1.1914,0.960938 2.05078,0.960937 0.85937,1e-6 1.53905,-0.320311 2.03906,-0.960937 0.5039,-0.640623 0.75585,-1.511716 0.75586,-2.613281 -10e-6,-1.105464 -0.25196,-1.97851 -0.75586,-2.619141 -0.50001,-0.640617 -1.17969,-0.960929 -2.03906,-0.960937 m 0,-0.960938 c 1.22655,9e-6 2.20702,0.412118 2.9414,1.236328 0.73437,0.82032 1.10156,1.921881 1.10157,3.304688 -1e-5,1.378909 -0.3672,2.48047 -1.10157,3.304687 -0.73438,0.820313 -1.71485,1.230469 -2.9414,1.230469 -1.23047,0 -2.21485,-0.410156 -2.95313,-1.230469 -0.73437,-0.82031 -1.10156,-1.921872 -1.10156,-3.304687 0,-1.382807 0.36719,-2.484368 1.10156,-3.304688 0.73828,-0.82421 1.72266,-1.236319 2.95313,-1.236328" />
        <path
           inkscape:connector-curvature="0"
           id="path4239"
           style="fill:#a68e00"
           d="m 122.77857,24.16658 1.19531,0 1.83985,7.394531 1.83398,-7.394531 1.33008,0 1.83984,7.394531 1.83399,-7.394531 1.20117,0 -2.19726,8.748047 -1.48829,0 -1.8457,-7.59375 -1.86328,7.59375 -1.48828,0 -2.19141,-8.748047" />
        <path
           inkscape:connector-curvature="0"
           id="path4241"
           style="fill:#a68e00"
           d="m 135.41724,24.16658 1.1836,0 0,7.751953 4.25976,0 0,0.996094 -5.44336,0 0,-8.748047" />
        <path
           inkscape:connector-curvature="0"
           id="path4243"
           style="fill:#a68e00"
           d="m 142.09693,24.16658 5.53125,0 0,0.996094 -4.34765,0 0,2.589844 4.16601,0 0,0.996093 -4.16601,0 0,3.169922 4.45312,0 0,0.996094 -5.63672,0 0,-8.748047" />
        <path
           inkscape:connector-curvature="0"
           id="path4245"
           style="fill:#a68e00"
           d="m 150.87428,25.139236 0,6.802735 1.42968,0 c 1.20703,1e-6 2.08984,-0.273436 2.64844,-0.820313 0.56249,-0.546872 0.84374,-1.410153 0.84375,-2.589843 -1e-5,-1.17187 -0.28126,-2.029291 -0.84375,-2.572266 -0.5586,-0.546868 -1.44141,-0.820305 -2.64844,-0.820313 l -1.42968,0 m -1.1836,-0.972656 2.43164,0 c 1.69531,9e-6 2.93945,0.353524 3.73242,1.060547 0.79296,0.703132 1.18945,1.804693 1.18946,3.304688 -1e-5,1.507815 -0.39845,2.615236 -1.19532,3.322265 -0.79688,0.707032 -2.03906,1.060547 -3.72656,1.060547 l -2.43164,0 0,-8.748047" />
        <path
           inkscape:connector-curvature="0"
           id="path4247"
           style="fill:#a68e00"
           d="m 164.8899,31.66658 0,-2.349609 -1.93359,0 0,-0.972656 3.10547,0 0,3.755859 c -0.45704,0.324219 -0.96095,0.570313 -1.51172,0.738281 -0.55079,0.164063 -1.13868,0.246094 -1.76368,0.246094 -1.36719,0 -2.4375,-0.398437 -3.21093,-1.195313 -0.76954,-0.800779 -1.1543,-1.914059 -1.1543,-3.339843 0,-1.429682 0.38476,-2.542962 1.1543,-3.339844 0.77343,-0.800773 1.84374,-1.201163 3.21093,-1.201172 0.57031,9e-6 1.11133,0.07032 1.62305,0.210938 0.51562,0.140633 0.99023,0.347664 1.42383,0.621093 l 0,1.259766 c -0.43751,-0.371087 -0.90235,-0.650383 -1.39453,-0.837891 -0.4922,-0.187492 -1.00977,-0.281242 -1.55274,-0.28125 -1.07031,8e-6 -1.875,0.298836 -2.41406,0.896485 -0.53516,0.597662 -0.80273,1.488286 -0.80273,2.671875 0,1.17969 0.26757,2.068361 0.80273,2.666015 0.53906,0.597658 1.34375,0.896486 2.41406,0.896485 0.41797,10e-7 0.79101,-0.03516 1.11914,-0.105469 0.32812,-0.07422 0.62304,-0.187499 0.88477,-0.339844" />
        <path
           inkscape:connector-curvature="0"
           id="path4249"
           style="fill:#a68e00"
           d="m 168.22974,24.16658 5.53125,0 0,0.996094 -4.34765,0 0,2.589844 4.16601,0 0,0.996093 -4.16601,0 0,3.169922 4.45312,0 0,0.996094 -5.63672,0 0,-8.748047" />
        <path
           inkscape:connector-curvature="0"
           id="path4251"
           style="fill:#a68e00"
           d="m 182.56763,25.332596 -1.60546,4.353515 3.21679,0 -1.61133,-4.353515 m -0.66796,-1.166016 1.34179,0 3.33399,8.748047 -1.23047,0 -0.79688,-2.244141 -3.94336,0 -0.79687,2.244141 -1.24805,0 3.33985,-8.748047" />
        <path
           inkscape:connector-curvature="0"
           id="path4253"
           style="fill:#a68e00"
           d="m 187.84693,24.16658 1.59375,0 3.87891,7.31836 0,-7.31836 1.14844,0 0,8.748047 -1.59375,0 -3.87891,-7.318359 0,7.318359 -1.14844,0 0,-8.748047" />
        <path
           inkscape:connector-curvature="0"
           id="path4255"
           style="fill:#a68e00"
           d="m 198.00709,25.139236 0,6.802735 1.42969,0 c 1.20702,1e-6 2.08983,-0.273436 2.64843,-0.820313 0.5625,-0.546872 0.84375,-1.410153 0.84375,-2.589843 0,-1.17187 -0.28125,-2.029291 -0.84375,-2.572266 -0.5586,-0.546868 -1.44141,-0.820305 -2.64843,-0.820313 l -1.42969,0 m -1.1836,-0.972656 2.43164,0 c 1.69531,9e-6 2.93945,0.353524 3.73243,1.060547 0.79296,0.703132 1.18944,1.804693 1.18945,3.304688 -1e-5,1.507815 -0.39845,2.615236 -1.19531,3.322265 -0.79688,0.707032 -2.03907,1.060547 -3.72657,1.060547 l -2.43164,0 0,-8.748047" />
        <path
           inkscape:connector-curvature="0"
           id="path4257"
           style="fill:#a68e00"
           d="m 214.02662,28.813065 c 0.2539,0.08594 0.49999,0.269535 0.73828,0.550781 0.24218,0.281253 0.48437,0.667971 0.72656,1.160156 l 1.20117,2.390625 -1.27148,0 -1.11914,-2.244141 c -0.28907,-0.585934 -0.57032,-0.974606 -0.84375,-1.166015 -0.26954,-0.191403 -0.63868,-0.287106 -1.10742,-0.28711 l -1.28906,0 0,3.697266 -1.1836,0 0,-8.748047 2.67188,0 c 0.99999,9e-6 1.74608,0.208993 2.23828,0.626953 0.49218,0.417977 0.73827,1.048836 0.73828,1.892578 -1e-5,0.550787 -0.12891,1.007818 -0.38672,1.371094 -0.25391,0.363286 -0.62501,0.615239 -1.11328,0.75586 m -2.96484,-3.673829 0,3.105469 1.48828,0 c 0.5703,5e-6 0.99999,-0.130854 1.28906,-0.392578 0.29296,-0.26562 0.43945,-0.654291 0.43945,-1.166016 0,-0.511712 -0.14649,-0.896477 -0.43945,-1.154296 -0.28907,-0.261712 -0.71876,-0.392571 -1.28906,-0.392579 l -1.48828,0" />
        <path
           inkscape:connector-curvature="0"
           id="path4259"
           style="fill:#a68e00"
           d="m 218.22193,24.16658 5.53125,0 0,0.996094 -4.34765,0 0,2.589844 4.16601,0 0,0.996093 -4.16601,0 0,3.169922 4.45312,0 0,0.996094 -5.63672,0 0,-8.748047" />
        <path
           inkscape:connector-curvature="0"
           id="path4261"
           style="fill:#a68e00"
           d="m 231.05982,24.45369 0,1.154296 c -0.44922,-0.214836 -0.87305,-0.374992 -1.27148,-0.480468 -0.39844,-0.105461 -0.78321,-0.158195 -1.1543,-0.158203 -0.64453,8e-6 -1.14258,0.125007 -1.49414,0.375 -0.34766,0.250007 -0.52149,0.605475 -0.52148,1.066406 -10e-6,0.386725 0.11523,0.679693 0.3457,0.878906 0.23437,0.195318 0.67578,0.353521 1.32422,0.474609 l 0.71484,0.146485 c 0.88281,0.167973 1.5332,0.464848 1.95117,0.890625 0.42187,0.421879 0.63281,0.988284 0.63282,1.699219 -10e-6,0.847657 -0.28517,1.490235 -0.85547,1.927734 -0.56641,0.4375 -1.39845,0.65625 -2.4961,0.65625 -0.41406,0 -0.85547,-0.04687 -1.32422,-0.140625 -0.46484,-0.09375 -0.94726,-0.232422 -1.44726,-0.416016 l 0,-1.21875 c 0.48047,0.269533 0.95117,0.472658 1.41211,0.609375 0.46093,0.13672 0.91406,0.205079 1.35937,0.205078 0.67578,1e-6 1.19726,-0.132811 1.56446,-0.398437 0.36718,-0.265624 0.55077,-0.644529 0.55078,-1.136719 -1e-5,-0.429685 -0.13282,-0.765622 -0.39844,-1.007812 -0.26172,-0.242184 -0.69336,-0.423825 -1.29492,-0.544922 l -0.7207,-0.140625 c -0.88282,-0.175777 -1.52149,-0.451168 -1.91602,-0.826172 -0.39453,-0.374995 -0.5918,-0.896479 -0.5918,-1.564453 0,-0.77343 0.27149,-1.382805 0.81446,-1.828125 0.54687,-0.445304 1.29882,-0.66796 2.25586,-0.667969 0.41015,9e-6 0.82812,0.03712 1.2539,0.111328 0.42578,0.07423 0.86132,0.185556 1.30664,0.333985" />
        <path
           inkscape:connector-curvature="0"
           id="path4263"
           style="fill:#a68e00"
           d="m 234.61646,25.139236 0,3.28711 1.48828,0 c 0.55078,4e-6 0.97656,-0.142574 1.27735,-0.427735 0.30077,-0.285151 0.45116,-0.6914 0.45117,-1.21875 -1e-5,-0.52343 -0.1504,-0.927727 -0.45117,-1.21289 -0.30079,-0.285149 -0.72657,-0.427727 -1.27735,-0.427735 l -1.48828,0 m -1.18359,-0.972656 2.67187,0 c 0.98047,9e-6 1.7207,0.222665 2.22071,0.667969 0.5039,0.441414 0.75585,1.089851 0.75586,1.945312 -1e-5,0.863287 -0.25196,1.51563 -0.75586,1.957032 -0.50001,0.44141 -1.24024,0.662113 -2.22071,0.662109 l -1.48828,0 0,3.515625 -1.18359,0 0,-8.748047" />
        <path
           inkscape:connector-curvature="0"
           id="path4265"
           style="fill:#a68e00"
           d="m 240.67506,24.16658 5.53125,0 0,0.996094 -4.34766,0 0,2.589844 4.16602,0 0,0.996093 -4.16602,0 0,3.169922 4.45313,0 0,0.996094 -5.63672,0 0,-8.748047" />
        <path
           inkscape:connector-curvature="0"
           id="path4267"
           style="fill:#a68e00"
           d="m 254.81959,24.840408 0,1.248047 c -0.39845,-0.371086 -0.82423,-0.64843 -1.27735,-0.832031 -0.44922,-0.183586 -0.92774,-0.275383 -1.43554,-0.275391 -1.00001,8e-6 -1.76563,0.306649 -2.29688,0.919922 -0.53125,0.609382 -0.79687,1.492193 -0.79687,2.648438 0,1.152347 0.26562,2.035158 0.79687,2.648437 0.53125,0.609376 1.29687,0.914064 2.29688,0.914063 0.5078,10e-7 0.98632,-0.0918 1.43554,-0.275391 0.45312,-0.183592 0.8789,-0.460936 1.27735,-0.832031 l 0,1.236328 c -0.41407,0.28125 -0.85352,0.492188 -1.31836,0.632812 -0.46095,0.140625 -0.94923,0.210938 -1.46485,0.210938 -1.32422,0 -2.36719,-0.404297 -3.1289,-1.212891 -0.76172,-0.812498 -1.14258,-1.919919 -1.14258,-3.322265 0,-1.406245 0.38086,-2.513665 1.14258,-3.322266 0.76171,-0.812491 1.80468,-1.218741 3.1289,-1.21875 0.52344,9e-6 1.01562,0.07032 1.47657,0.210938 0.46483,0.136727 0.90038,0.343758 1.30664,0.621093" />
        <path
           inkscape:connector-curvature="0"
           id="path4269"
           style="fill:#a68e00"
           d="m 255.44654,24.16658 7.40039,0 0,0.996094 -3.10547,0 0,7.751953 -1.18945,0 0,-7.751953 -3.10547,0 0,-0.996094" />
      </g>
    </g>
    <path
       inkscape:connector-curvature="0"
       style="fill:none;stroke:#a68e00;stroke-width:2.72000003;stroke-linecap:butt;stroke-linejoin:miter;stroke-miterlimit:4;stroke-dasharray:none;display:inline"
       d="m 285.93438,96.703 -14.46538,0"
       id="path3172-0-7-1" />
    <path
       inkscape:connector-curvature="0"
       style="fill:none;stroke:#a68e00;stroke-width:2.72000003;stroke-linecap:butt;stroke-linejoin:miter;stroke-miterlimit:4;stroke-dasharray:none;display:inline"
       d="m 286.14624,28.425 -14.46538,0"
       id="path3172-0-0-6-5" />
    <rect
       style="fill:#a68e00;fill-opacity:1;fill-rule:evenodd;stroke:none;display:inline"
       id="rect3210-0-0"
       width="13.927575"
       height="13.330678"
       x="-163.76398"
       y="229.07515"
       transform="matrix(0,-1,1,0,0,0)" />
    <text
       sodipodi:linespacing="125%"
       x="74.249054"
       y="44.086987"
       xml:space="preserve"
       style="font-size:12px;font-style:normal;font-weight:normal;line-height:125%;letter-spacing:0px;word-spacing:0px;fill:#a68e00;display:inline;font-family:Sans"
       id="text3847-4-59-1-2"><tspan
         y="44.086987"
         style="font-size:12px;fill:#a68e00"
         x="74.249054"
         id="tspan3851-7-9-8-2" /></text>
    <g
       id="g4305"
       transform="translate(-1.7584,0)">
      <path
         d="m 155.19099,46.761395 1.1836,0 0,3.697265 3.92578,-3.697265 1.52344,0 -4.3418,4.078125 4.65234,4.669921 -1.55859,0 -4.20117,-4.21289 0,4.21289 -1.1836,0 0,-8.748046"
         style="font-size:12px;font-style:normal;font-weight:normal;line-height:125%;letter-spacing:0px;word-spacing:0px;fill:#a68e00;font-family:Sans"
         id="path4206"
         inkscape:connector-curvature="0" />
      <path
         d="m 163.06599,46.761395 5.53125,0 0,0.996093 -4.34765,0 0,2.589844 4.16601,0 0,0.996094 -4.16601,0 0,3.169922 4.45312,0 0,0.996093 -5.63672,0 0,-8.748046"
         style="font-size:12px;font-style:normal;font-weight:normal;line-height:125%;letter-spacing:0px;word-spacing:0px;fill:#a68e00;font-family:Sans"
         id="path4208"
         inkscape:connector-curvature="0" />
      <path
         d="m 170.65974,46.761395 5.53125,0 0,0.996093 -4.34765,0 0,2.589844 4.16601,0 0,0.996094 -4.16601,0 0,3.169922 4.45312,0 0,0.996093 -5.63672,0 0,-8.748046"
         style="font-size:12px;font-style:normal;font-weight:normal;line-height:125%;letter-spacing:0px;word-spacing:0px;fill:#a68e00;font-family:Sans"
         id="path4210"
         inkscape:connector-curvature="0" />
      <path
         d="m 179.43709,47.734051 0,3.287109 1.48828,0 c 0.55078,5e-6 0.97656,-0.142573 1.27734,-0.427734 0.30078,-0.285151 0.45117,-0.691401 0.45117,-1.21875 0,-0.523431 -0.15039,-0.927728 -0.45117,-1.212891 -0.30078,-0.285148 -0.72656,-0.427726 -1.27734,-0.427734 l -1.48828,0 m -1.1836,-0.972656 2.67188,0 c 0.98046,8e-6 1.7207,0.222664 2.2207,0.667968 0.5039,0.441414 0.75585,1.089851 0.75586,1.945313 -1e-5,0.863286 -0.25196,1.515629 -0.75586,1.957031 -0.5,0.44141 -1.24024,0.662113 -2.2207,0.662109 l -1.48828,0 0,3.515625 -1.1836,0 0,-8.748046"
         style="font-size:12px;font-style:normal;font-weight:normal;line-height:125%;letter-spacing:0px;word-spacing:0px;fill:#a68e00;font-family:Sans"
         id="path4212"
         inkscape:connector-curvature="0" />
      <path
         d="m 190.73982,47.048504 0,1.154297 c -0.44922,-0.214836 -0.87305,-0.374993 -1.27148,-0.480469 -0.39844,-0.105461 -0.78321,-0.158195 -1.1543,-0.158203 -0.64453,8e-6 -1.14258,0.125008 -1.49414,0.375 -0.34766,0.250007 -0.52149,0.605476 -0.52148,1.066406 -1e-5,0.386725 0.11523,0.679693 0.3457,0.878906 0.23437,0.195318 0.67578,0.353521 1.32422,0.47461 l 0.71484,0.146484 c 0.88281,0.167974 1.5332,0.464848 1.95117,0.890625 0.42187,0.421879 0.63281,0.988285 0.63282,1.699219 -1e-5,0.847658 -0.28517,1.490235 -0.85547,1.927734 -0.56641,0.4375 -1.39844,0.65625 -2.4961,0.65625 -0.41406,0 -0.85547,-0.04687 -1.32422,-0.140625 -0.46484,-0.09375 -0.94726,-0.232421 -1.44726,-0.416015 l 0,-1.21875 c 0.48047,0.269532 0.95117,0.472657 1.41211,0.609375 0.46093,0.136719 0.91406,0.205079 1.35937,0.205078 0.67578,10e-7 1.19726,-0.132812 1.56446,-0.398438 0.36718,-0.265623 0.55077,-0.644529 0.55078,-1.136718 -1e-5,-0.429685 -0.13282,-0.765622 -0.39844,-1.007813 -0.26172,-0.242184 -0.69336,-0.423824 -1.29492,-0.544922 l -0.7207,-0.140625 c -0.88282,-0.175777 -1.52149,-0.451167 -1.91602,-0.826172 -0.39453,-0.374995 -0.5918,-0.896478 -0.5918,-1.564453 0,-0.77343 0.27149,-1.382805 0.81446,-1.828125 0.54687,-0.445304 1.29882,-0.66796 2.25586,-0.667969 0.41015,9e-6 0.82812,0.03712 1.2539,0.111329 0.42578,0.07423 0.86132,0.185555 1.30664,0.333984"
         style="font-size:12px;font-style:normal;font-weight:normal;line-height:125%;letter-spacing:0px;word-spacing:0px;fill:#a68e00;font-family:Sans"
         id="path4214"
         inkscape:connector-curvature="0" />
      <path
         d="m 195.72029,46.761395 7.40039,0 0,0.996093 -3.10547,0 0,7.751953 -1.18945,0 0,-7.751953 -3.10547,0 0,-0.996093"
         style="font-size:12px;font-style:normal;font-weight:normal;line-height:125%;letter-spacing:0px;word-spacing:0px;fill:#a68e00;font-family:Sans"
         id="path4216"
         inkscape:connector-curvature="0" />
      <path
         d="m 204.26912,46.761395 1.18359,0 0,3.585937 4.30078,0 0,-3.585937 1.1836,0 0,8.748046 -1.1836,0 0,-4.166015 -4.30078,0 0,4.166015 -1.18359,0 0,-8.748046"
         style="font-size:12px;font-style:normal;font-weight:normal;line-height:125%;letter-spacing:0px;word-spacing:0px;fill:#a68e00;font-family:Sans"
         id="path4218"
         inkscape:connector-curvature="0" />
      <path
         d="m 213.29256,46.761395 5.53125,0 0,0.996093 -4.34766,0 0,2.589844 4.16602,0 0,0.996094 -4.16602,0 0,3.169922 4.45313,0 0,0.996093 -5.63672,0 0,-8.748046"
         style="font-size:12px;font-style:normal;font-weight:normal;line-height:125%;letter-spacing:0px;word-spacing:0px;fill:#a68e00;font-family:Sans"
         id="path4220"
         inkscape:connector-curvature="0" />
      <path
         d="m 225.89021,47.734051 0,3.287109 1.48828,0 c 0.55078,5e-6 0.97656,-0.142573 1.27735,-0.427734 0.30077,-0.285151 0.45116,-0.691401 0.45117,-1.21875 -1e-5,-0.523431 -0.1504,-0.927728 -0.45117,-1.212891 -0.30079,-0.285148 -0.72657,-0.427726 -1.27735,-0.427734 l -1.48828,0 m -1.18359,-0.972656 2.67187,0 c 0.98047,8e-6 1.7207,0.222664 2.22071,0.667968 0.5039,0.441414 0.75585,1.089851 0.75586,1.945313 -1e-5,0.863286 -0.25196,1.515629 -0.75586,1.957031 -0.50001,0.44141 -1.24024,0.662113 -2.22071,0.662109 l -1.48828,0 0,3.515625 -1.18359,0 0,-8.748046"
         style="font-size:12px;font-style:normal;font-weight:normal;line-height:125%;letter-spacing:0px;word-spacing:0px;fill:#a68e00;font-family:Sans"
         id="path4222"
         inkscape:connector-curvature="0" />
      <path
         d="m 231.94881,46.761395 5.53125,0 0,0.996093 -4.34766,0 0,2.589844 4.16602,0 0,0.996094 -4.16602,0 0,3.169922 4.45313,0 0,0.996093 -5.63672,0 0,-8.748046"
         style="font-size:12px;font-style:normal;font-weight:normal;line-height:125%;letter-spacing:0px;word-spacing:0px;fill:#a68e00;font-family:Sans"
         id="path4224"
         inkscape:connector-curvature="0" />
      <path
         d="m 242.46638,47.92741 -1.60546,4.353516 3.21679,0 -1.61133,-4.353516 m -0.66796,-1.166015 1.34179,0 3.33399,8.748046 -1.23047,0 -0.79688,-2.24414 -3.94336,0 -0.79687,2.24414 -1.24805,0 3.33985,-8.748046"
         style="font-size:12px;font-style:normal;font-weight:normal;line-height:125%;letter-spacing:0px;word-spacing:0px;fill:#a68e00;font-family:Sans"
         id="path4226"
         inkscape:connector-curvature="0" />
      <path
         d="m 254.08553,47.435223 0,1.248047 c -0.39845,-0.371087 -0.82423,-0.648431 -1.27735,-0.832032 -0.44922,-0.183586 -0.92774,-0.275382 -1.43555,-0.27539 -1,8e-6 -1.76562,0.306648 -2.29687,0.919922 -0.53125,0.609381 -0.79688,1.492193 -0.79688,2.648437 0,1.152347 0.26563,2.035159 0.79688,2.648438 0.53125,0.609376 1.29687,0.914063 2.29687,0.914062 0.50781,10e-7 0.98633,-0.0918 1.43555,-0.275391 0.45312,-0.183592 0.8789,-0.460936 1.27735,-0.832031 l 0,1.236328 c -0.41407,0.281251 -0.85353,0.492188 -1.31836,0.632813 -0.46095,0.140625 -0.94923,0.210937 -1.46485,0.210937 -1.32422,0 -2.36719,-0.404296 -3.1289,-1.21289 -0.76172,-0.812499 -1.14258,-1.919919 -1.14258,-3.322266 0,-1.406244 0.38086,-2.513665 1.14258,-3.322266 0.76171,-0.812491 1.80468,-1.218741 3.1289,-1.21875 0.52343,9e-6 1.01562,0.07032 1.47656,0.210938 0.46484,0.136727 0.90039,0.343758 1.30665,0.621094"
         style="font-size:12px;font-style:normal;font-weight:normal;line-height:125%;letter-spacing:0px;word-spacing:0px;fill:#a68e00;font-family:Sans"
         id="path4228"
         inkscape:connector-curvature="0" />
      <path
         d="m 255.92537,46.761395 5.53125,0 0,0.996093 -4.34766,0 0,2.589844 4.16602,0 0,0.996094 -4.16602,0 0,3.169922 4.45313,0 0,0.996093 -5.63672,0 0,-8.748046"
         style="font-size:12px;font-style:normal;font-weight:normal;line-height:125%;letter-spacing:0px;word-spacing:0px;fill:#a68e00;font-family:Sans"
         id="path4230"
         inkscape:connector-curvature="0" />
    </g>
    <g
       style="font-size:12px;font-style:normal;font-weight:normal;line-height:125%;letter-spacing:0px;word-spacing:0px;fill:#a68e00;display:inline;font-family:Sans"
       id="text3847-4-6-3-9"
       transform="translate(-1.7584,0)">
      <path
         d="m 176.9169,69.643333 0,1.154297 c -0.44922,-0.214836 -0.87305,-0.374992 -1.27148,-0.480468 -0.39845,-0.105461 -0.78321,-0.158196 -1.1543,-0.158204 -0.64454,8e-6 -1.14258,0.125008 -1.49414,0.375 -0.34766,0.250008 -0.52149,0.605476 -0.52149,1.066407 0,0.386725 0.11524,0.679693 0.34571,0.878906 0.23437,0.195318 0.67578,0.353521 1.32422,0.474609 l 0.71484,0.146485 c 0.88281,0.167973 1.5332,0.464848 1.95117,0.890625 0.42187,0.421878 0.63281,0.988284 0.63281,1.699218 0,0.847658 -0.28516,1.490236 -0.85546,1.927735 -0.56642,0.4375 -1.39845,0.65625 -2.4961,0.65625 -0.41406,0 -0.85547,-0.04687 -1.32422,-0.140625 -0.46484,-0.09375 -0.94726,-0.232422 -1.44726,-0.416016 l 0,-1.21875 c 0.48046,0.269533 0.95117,0.472658 1.41211,0.609375 0.46093,0.13672 0.91406,0.205079 1.35937,0.205078 0.67578,10e-7 1.19726,-0.132811 1.56446,-0.398437 0.36718,-0.265624 0.55077,-0.64453 0.55078,-1.136719 -1e-5,-0.429685 -0.13282,-0.765622 -0.39844,-1.007812 -0.26173,-0.242184 -0.69337,-0.423825 -1.29492,-0.544922 l -0.72071,-0.140625 c -0.88281,-0.175777 -1.52148,-0.451168 -1.91601,-0.826172 -0.39453,-0.374995 -0.5918,-0.896479 -0.5918,-1.564453 0,-0.773431 0.27148,-1.382805 0.81445,-1.828125 0.54688,-0.445304 1.29883,-0.66796 2.25586,-0.667969 0.41016,9e-6 0.82812,0.03712 1.25391,0.111328 0.42578,0.07423 0.86132,0.185556 1.30664,0.333984"
         style="fill:#a68e00"
         id="path4183"
         inkscape:connector-curvature="0" />
      <path
         d="m 179.28995,69.356224 5.53125,0 0,0.996094 -4.34766,0 0,2.589844 4.16602,0 0,0.996093 -4.16602,0 0,3.169922 4.45313,0 0,0.996094 -5.63672,0 0,-8.748047"
         style="fill:#a68e00"
         id="path4185"
         inkscape:connector-curvature="0" />
      <path
         d="m 186.8837,69.356224 1.18359,0 0,7.751953 4.25977,0 0,0.996094 -5.44336,0 0,-8.748047"
         style="fill:#a68e00"
         id="path4187"
         inkscape:connector-curvature="0" />
      <path
         d="m 193.56339,69.356224 5.02734,0 0,0.996094 -3.84375,0 0,2.578125 3.46875,0 0,0.996094 -3.46875,0 0,4.177734 -1.18359,0 0,-8.748047"
         style="fill:#a68e00"
         id="path4189"
         inkscape:connector-curvature="0" />
      <path
         d="m 210.84854,70.030052 0,1.248047 c -0.39844,-0.371086 -0.82422,-0.64843 -1.27734,-0.832031 -0.44923,-0.183586 -0.92774,-0.275383 -1.43555,-0.275391 -1,8e-6 -1.76563,0.306648 -2.29687,0.919922 -0.53126,0.609381 -0.79688,1.492193 -0.79688,2.648438 0,1.152347 0.26562,2.035158 0.79688,2.648437 0.53124,0.609376 1.29687,0.914063 2.29687,0.914063 0.50781,0 0.98632,-0.0918 1.43555,-0.275391 0.45312,-0.183593 0.8789,-0.460936 1.27734,-0.832031 l 0,1.236328 c -0.41407,0.28125 -0.85352,0.492187 -1.31836,0.632812 -0.46094,0.140625 -0.94922,0.210938 -1.46484,0.210938 -1.32422,0 -2.36719,-0.404297 -3.12891,-1.212891 -0.76172,-0.812498 -1.14258,-1.919919 -1.14258,-3.322265 0,-1.406245 0.38086,-2.513665 1.14258,-3.322266 0.76172,-0.812492 1.80469,-1.218741 3.12891,-1.21875 0.52343,9e-6 1.01562,0.07032 1.47656,0.210937 0.46484,0.136728 0.90038,0.343759 1.30664,0.621094"
         style="fill:#a68e00"
         id="path4191"
         inkscape:connector-curvature="0" />
      <path
         d="m 216.23917,70.158958 c -0.85938,8e-6 -1.54298,0.320321 -2.05078,0.960938 -0.50391,0.640631 -0.75587,1.513677 -0.75586,2.619141 -1e-5,1.101565 0.25195,1.972658 0.75586,2.613281 0.5078,0.640626 1.1914,0.960938 2.05078,0.960937 0.85937,10e-7 1.53905,-0.320311 2.03906,-0.960937 0.5039,-0.640623 0.75585,-1.511716 0.75586,-2.613281 -1e-5,-1.105464 -0.25196,-1.97851 -0.75586,-2.619141 -0.50001,-0.640617 -1.17969,-0.96093 -2.03906,-0.960938 m 0,-0.960937 c 1.22655,9e-6 2.20702,0.412118 2.9414,1.236328 0.73437,0.820319 1.10156,1.921881 1.10157,3.304688 -1e-5,1.378909 -0.3672,2.48047 -1.10157,3.304687 -0.73438,0.820313 -1.71485,1.230469 -2.9414,1.230469 -1.23048,0 -2.21485,-0.410156 -2.95313,-1.230469 -0.73437,-0.820311 -1.10156,-1.921872 -1.10156,-3.304687 0,-1.382807 0.36719,-2.484369 1.10156,-3.304688 0.73828,-0.82421 1.72265,-1.236319 2.95313,-1.236328"
         style="fill:#a68e00"
         id="path4193"
         inkscape:connector-curvature="0" />
      <path
         d="m 222.1337,69.356224 1.59375,0 3.8789,7.318359 0,-7.318359 1.14844,0 0,8.748047 -1.59375,0 -3.8789,-7.318359 0,7.318359 -1.14844,0 0,-8.748047"
         style="fill:#a68e00"
         id="path4195"
         inkscape:connector-curvature="0" />
      <path
         d="m 229.89737,69.356224 7.40039,0 0,0.996094 -3.10547,0 0,7.751953 -1.18945,0 0,-7.751953 -3.10547,0 0,-0.996094"
         style="fill:#a68e00"
         id="path4197"
         inkscape:connector-curvature="0" />
      <path
         d="m 242.59464,74.002708 c 0.2539,0.08594 0.49999,0.269536 0.73828,0.550782 0.24218,0.281253 0.48436,0.667971 0.72656,1.160156 l 1.20117,2.390625 -1.27148,0 -1.11914,-2.244141 c -0.28907,-0.585934 -0.57032,-0.974606 -0.84375,-1.166015 -0.26954,-0.191403 -0.63868,-0.287106 -1.10743,-0.28711 l -1.28906,0 0,3.697266 -1.18359,0 0,-8.748047 2.67187,0 c 1,9e-6 1.74609,0.208993 2.23828,0.626953 0.49218,0.417977 0.73828,1.048835 0.73829,1.892578 -1e-5,0.550787 -0.12892,1.007818 -0.38672,1.371094 -0.25392,0.363286 -0.62501,0.615239 -1.11328,0.755859 m -2.96485,-3.673828 0,3.105469 1.48828,0 c 0.57031,5e-6 1,-0.130855 1.28907,-0.392578 0.29296,-0.26562 0.43944,-0.654291 0.43945,-1.166016 -1e-5,-0.511712 -0.14649,-0.896477 -0.43945,-1.154297 -0.28907,-0.261711 -0.71876,-0.39257 -1.28907,-0.392578 l -1.48828,0"
         style="fill:#a68e00"
         id="path4199"
         inkscape:connector-curvature="0" />
      <path
         d="m 250.34073,70.158958 c -0.85938,8e-6 -1.54297,0.320321 -2.05078,0.960938 -0.50391,0.640631 -0.75586,1.513677 -0.75586,2.619141 0,1.101565 0.25195,1.972658 0.75586,2.613281 0.50781,0.640626 1.1914,0.960938 2.05078,0.960937 0.85937,10e-7 1.53905,-0.320311 2.03906,-0.960937 0.5039,-0.640623 0.75585,-1.511716 0.75586,-2.613281 -1e-5,-1.105464 -0.25196,-1.97851 -0.75586,-2.619141 -0.50001,-0.640617 -1.17969,-0.96093 -2.03906,-0.960938 m 0,-0.960937 c 1.22656,9e-6 2.20702,0.412118 2.94141,1.236328 0.73436,0.820319 1.10155,1.921881 1.10156,3.304688 -1e-5,1.378909 -0.3672,2.48047 -1.10156,3.304687 -0.73439,0.820313 -1.71485,1.230469 -2.94141,1.230469 -1.23047,0 -2.21485,-0.410156 -2.95313,-1.230469 -0.73437,-0.820311 -1.10156,-1.921872 -1.10156,-3.304687 0,-1.382807 0.36719,-2.484369 1.10156,-3.304688 0.73828,-0.82421 1.72266,-1.236319 2.95313,-1.236328"
         style="fill:#a68e00"
         id="path4201"
         inkscape:connector-curvature="0" />
      <path
         d="m 256.23526,69.356224 1.18359,0 0,7.751953 4.25977,0 0,0.996094 -5.44336,0 0,-8.748047"
         style="fill:#a68e00"
         id="path4203"
         inkscape:connector-curvature="0" />
    </g>
    <g
       style="font-size:12px;font-style:normal;font-weight:normal;line-height:125%;letter-spacing:0px;word-spacing:0px;fill:#a68e00;display:inline;font-family:Sans"
       id="text3847-4-6-3-9-0"
       transform="translate(-1.2,0)">
      <path
         d="m 198.944,91.95105 1.18359,0 0,8.74805 -1.18359,0 0,-8.74805"
         style="fill:#a68e00"
         id="path4164"
         inkscape:connector-curvature="0" />
      <path
         d="m 202.48306,91.95105 1.59375,0 3.87891,7.318359 0,-7.318359 1.14844,0 0,8.74805 -1.59375,0 -3.87891,-7.318363 0,7.318363 -1.14844,0 0,-8.74805"
         style="fill:#a68e00"
         id="path4166"
         inkscape:connector-curvature="0" />
      <path
         d="m 210.24673,91.95105 7.4004,0 0,0.996094 -3.10547,0 0,7.751956 -1.18946,0 0,-7.751956 -3.10547,0 0,-0.996094"
         style="fill:#a68e00"
         id="path4168"
         inkscape:connector-curvature="0" />
      <path
         d="m 218.79556,91.95105 5.53125,0 0,0.996094 -4.34765,0 0,2.589843 4.16601,0 0,0.996094 -4.16601,0 0,3.169922 4.45312,0 0,0.996097 -5.63672,0 0,-8.74805"
         style="fill:#a68e00"
         id="path4170"
         inkscape:connector-curvature="0" />
      <path
         d="m 232.35416,99.45105 0,-2.34961 -1.9336,0 0,-0.972656 3.10547,0 0,3.75586 c -0.45704,0.324216 -0.96094,0.570316 -1.51172,0.738276 -0.55078,0.16407 -1.13867,0.2461 -1.76367,0.2461 -1.36719,0 -2.4375,-0.39844 -3.21094,-1.195314 -0.76953,-0.800779 -1.15429,-1.91406 -1.15429,-3.339844 0,-1.429681 0.38476,-2.542962 1.15429,-3.339843 0.77344,-0.800773 1.84375,-1.201163 3.21094,-1.201172 0.57031,9e-6 1.11132,0.07032 1.62305,0.210937 0.51562,0.140634 0.99022,0.347665 1.42383,0.621094 l 0,1.259766 c -0.43751,-0.371087 -0.90236,-0.650384 -1.39454,-0.837891 -0.49219,-0.187492 -1.00977,-0.281242 -1.55273,-0.28125 -1.07032,8e-6 -1.875,0.298836 -2.41406,0.896484 -0.53516,0.597663 -0.80274,1.488287 -0.80274,2.671875 0,1.179691 0.26758,2.068362 0.80274,2.666016 0.53906,0.597657 1.34374,0.896485 2.41406,0.896484 0.41796,10e-7 0.79101,-0.03516 1.11914,-0.105468 0.32812,-0.07422 0.62304,-0.187499 0.88477,-0.339844"
         style="fill:#a68e00"
         id="path4172"
         inkscape:connector-curvature="0" />
      <path
         d="m 239.84244,96.597534 c 0.2539,0.08594 0.49999,0.269535 0.73828,0.550781 0.24218,0.281254 0.48437,0.667972 0.72656,1.160157 l 1.20117,2.390628 -1.27148,0 -1.11914,-2.244144 c -0.28907,-0.585935 -0.57032,-0.974606 -0.84375,-1.166016 -0.26954,-0.191402 -0.63868,-0.287105 -1.10742,-0.287109 l -1.28907,0 0,3.697269 -1.18359,0 0,-8.74805 2.67188,0 c 0.99999,9e-6 1.74608,0.208993 2.23828,0.626953 0.49218,0.417976 0.73827,1.048835 0.73828,1.892578 -1e-5,0.550787 -0.12892,1.007818 -0.38672,1.371094 -0.25391,0.363286 -0.62501,0.615238 -1.11328,0.755859 m -2.96485,-3.673828 0,3.105469 1.48829,0 c 0.5703,4e-6 0.99999,-0.130855 1.28906,-0.392578 0.29296,-0.26562 0.43945,-0.654291 0.43945,-1.166016 0,-0.511712 -0.14649,-0.896477 -0.43945,-1.154297 -0.28907,-0.261711 -0.71876,-0.39257 -1.28906,-0.392578 l -1.48829,0"
         style="fill:#a68e00"
         id="path4174"
         inkscape:connector-curvature="0" />
      <path
         d="m 244.03775,91.95105 1.18359,0 0,8.74805 -1.18359,0 0,-8.74805"
         style="fill:#a68e00"
         id="path4176"
         inkscape:connector-curvature="0" />
      <path
         d="m 246.36392,91.95105 7.40039,0 0,0.996094 -3.10547,0 0,7.751956 -1.18945,0 0,-7.751956 -3.10547,0 0,-0.996094"
         style="fill:#a68e00"
         id="path4178"
         inkscape:connector-curvature="0" />
      <path
         d="m 253.71158,91.95105 1.27148,0 2.42578,3.597656 2.40821,-3.597656 1.27148,0 -3.09375,4.582031 0,4.166019 -1.18945,0 0,-4.166019 -3.09375,-4.582031"
         style="fill:#a68e00"
         id="path4180"
         inkscape:connector-curvature="0" />
    </g>
    <path
       inkscape:connector-curvature="0"
       style="fill:none;stroke:#a68e00;stroke-width:2.72000003;stroke-linecap:butt;stroke-linejoin:miter;stroke-miterlimit:4;stroke-dasharray:none;display:inline"
       d="m 285.88071,50.691 -14.46538,0"
       id="path3172-0-0-6-5-6" />
    <path
       inkscape:connector-curvature="0"
       style="fill:none;stroke:#a68e00;stroke-width:2.72000003;stroke-linecap:butt;stroke-linejoin:miter;stroke-miterlimit:4;stroke-dasharray:none;display:inline"
       d="m 285.88071,73.55972 -14.46538,0"
       id="path3172-0-0-6-5-0" />
  </g>
  <g
     inkscape:groupmode="layer"
     id="layer2"
     inkscape:label="scene2"
     style="display:none">
    <path
       style="fill:none;stroke:#a68e00;stroke-width:2.72000003;stroke-linecap:butt;stroke-linejoin:miter;stroke-miterlimit:4;stroke-dasharray:none"
       d="m 150.23548,10.819868 -14.46538,0"
       id="path3172-7"
       inkscape:connector-curvature="0" />
    <path
       style="fill:none;stroke:#a68e00;stroke-width:2.72000003;stroke-linecap:butt;stroke-linejoin:miter;stroke-miterlimit:4;stroke-dasharray:none"
       d="m 136.15747,9.43522 c 0,101.79359 0,101.79359 0,101.79359"
       id="path3812-7-4"
       inkscape:connector-curvature="0" />
    <rect
       style="fill:#a68e00;fill-opacity:1;fill-rule:evenodd;stroke:none"
       id="rect3210-0"
       width="13.927575"
       height="13.330678"
       x="5.0068564"
       y="173.66452"
       transform="matrix(0.70710678,-0.70710678,0.70710678,0.70710678,0,0)" />
    <path
       style="fill:none;stroke:#a68e00;stroke-width:2.72000003;stroke-linecap:butt;stroke-linejoin:miter;stroke-miterlimit:4;stroke-dasharray:none;display:inline"
       d="m 300.33577,10.819868 -14.46538,0"
       id="path3172-9"
       inkscape:connector-curvature="0" />
    <path
       style="fill:none;stroke:#a68e00;stroke-width:2.72000003;stroke-linecap:butt;stroke-linejoin:miter;stroke-miterlimit:4;stroke-dasharray:none;display:inline"
       d="m 286.25776,9.43522 c 0,101.79359 0,101.79359 0,101.79359 -24.68818,0 -24.68818,0 -24.68818,0"
       id="path3812-7-9"
       inkscape:connector-curvature="0" />
    <rect
       style="fill:#a68e00;fill-opacity:1;fill-rule:evenodd;stroke:none;display:inline"
       id="rect3210-7"
       width="13.927575"
       height="13.330678"
       x="-265.67633"
       y="94.704948"
       transform="matrix(-0.70710678,-0.70710678,0.70710678,-0.70710678,0,0)" />
  </g>
  <g
     inkscape:groupmode="layer"
     id="layer1"
     inkscape:label="scene1"
     style="display:inline">
    <path
       style="fill:none;stroke:#a68e00;stroke-width:2.72000003;stroke-linecap:butt;stroke-linejoin:miter;stroke-miterlimit:4;stroke-dasharray:none"
       d="m 300.33577,10.819868 -14.46538,0"
       id="path3172"
       inkscape:connector-curvature="0" />
    <path
       style="fill:none;stroke:#a68e00;stroke-width:2.72000003;stroke-linecap:butt;stroke-linejoin:miter;stroke-miterlimit:4;stroke-dasharray:none"
       d="m 286.25776,9.43522 c 0,101.79359 0,101.79359 0,101.79359 -24.68818,0 -24.68818,0 -24.68818,0"
       id="path3812-7"
       inkscape:connector-curvature="0" />
    <rect
       style="fill:#a68e00;fill-opacity:1;fill-rule:evenodd;stroke:none"
       id="rect3210"
       width="13.927575"
       height="13.330678"
       x="-265.67633"
       y="94.704948"
       transform="matrix(-0.70710678,-0.70710678,0.70710678,-0.70710678,0,0)" />
  </g>
</svg>
